<?xml version="1.0" encoding="UTF-8"?><svg id="a" xmlns="http://www.w3.org/2000/svg" width="304.47" height="126.83" xmlns:xlink="http://www.w3.org/1999/xlink" viewBox="0 0 304.47 126.83"><defs><style>.m{mask:url(#h);}.n{fill:url(#l);}.o,.p{fill:#2c3e50;}.q{fill:url(#f);}.r{clip-path:url(#b);}.s{clip-path:url(#c);}.t{fill:url(#i);}.u{clip-path:url(#e);}.v{clip-rule:evenodd;}.v,.w{fill:none;}.x{fill:url(#d);}.p{fill-rule:evenodd;}.y{fill:url(#j);}.a`{clip-path:url(#k);}.aa{clip-path:url(#g);}</style><clipPath id="b"><rect width="304.47" height="126.83" style="fill:none;"/></clipPath><clipPath id="c"><path d="M124.24,70.31v-13.33c0-7.98-4.79-12.45-10.76-12.45-3.19,0-5.76,1.29-8.34,3.81l-.41-3.45h-5.61v25.42h6.23v-12.97c0-3.86,2.62-7.1,6.48-7.1s6.12,2.93,6.12,6.79v13.28h6.28Zm26.73-22.75c-2.93-2.57-5.92-3.35-9.88-3.35-4.63,0-10.71,2.06-10.71,7.93s5.71,7.51,10.5,7.87c3.6,.21,5.04,.93,5.04,2.68,0,1.85-2.21,3.09-4.58,3.04-2.83-.05-6.95-1.54-8.75-3.55l-3.09,4.48c3.71,3.86,7.72,4.53,11.73,4.53,7.26,0,10.91-3.86,10.91-8.34,0-6.74-6.07-7.82-10.86-8.13-3.24-.21-4.73-1.13-4.73-2.78s1.65-2.52,4.63-2.52c2.42,0,4.48,.57,6.28,2.26l3.5-4.12Zm20.5,2.62c4.01,0,7.21,2.83,7.21,7.41s-3.19,7.46-7.21,7.46-7.36-2.88-7.36-7.46,3.4-7.41,7.36-7.41Zm-14.05-15.85v35.97h5.87l.41-3.5c1.96,3.04,5.09,4.06,8.18,4.06,7.46,0,13.07-4.94,13.07-13.28,0-8.75-5.51-13.28-12.92-13.28-2.68,0-6.84,1.44-8.34,4.07v-14.05h-6.28Z" style="clip-rule:evenodd; fill:none;"/></clipPath><linearGradient id="d" x1="134.5" y1="70.33" x2="150.08" y2="34.03" gradientTransform="matrix(1, 0, 0, 1, 0, 0)" gradientUnits="userSpaceOnUse"><stop offset="0" stop-color="#2a80ba"/><stop offset="1" stop-color="#16a085"/></linearGradient><clipPath id="e"><path d="M32.65,34.67c.14-.3,.3-.6,.48-.88l-2.26-2.26c-.96-.96-2.27-1.29-3.56-.9-1.38,.41-2.85,.41-4.23,0-1.3-.38-2.6-.05-3.56,.9l-3.16,3.16c-.96,.96-1.29,2.26-.9,3.56,.75,2.51,.13,5.35-1.86,7.33-2.88,2.88-7.56,2.88-10.44,0-2.88-2.88-2.88-7.56,0-10.44,1.99-1.99,4.82-2.6,7.33-1.86,1.3,.39,2.61,.05,3.56-.9l3.16-3.15c.96-.96,1.29-2.27,.9-3.56-.75-2.51-.13-5.35,1.85-7.33,2.88-2.88,7.56-2.88,10.44,0,1.98,1.99,2.6,4.82,1.86,7.33-.39,1.29-.05,2.6,.9,3.56l2.26,2.26c1.82-1.15,4.04-1.43,6.05-.83,1.3,.39,2.61,.05,3.56-.9l2.91-2.91c.96-.96,1.29-2.27,.9-3.56-.75-2.51-.13-5.35,1.85-7.33,2.88-2.88,7.56-2.88,10.44,0,2.88,2.88,2.88,7.56,0,10.44-1.99,1.99-4.82,2.6-7.33,1.86-1.3-.39-2.6-.05-3.56,.9l-2.91,2.91c-.18,.18-.34,.37-.47,.58-4.8-.43-9.69,.25-14.23,2.04m2.49-31.51c2.88-2.88,7.56-2.88,10.44,0,2.88,2.88,2.88,7.56,0,10.44-2.88,2.88-7.56,2.88-10.44,0-2.88-2.88-2.88-7.56,0-10.44Z" style="clip-rule:evenodd; fill:none;"/></clipPath><linearGradient id="f" x1="22.27" y1="14.37" x2="56.21" y2="48.71" gradientTransform="matrix(1, 0, 0, 1, 0, 0)" gradientUnits="userSpaceOnUse"><stop offset="0" stop-color="#2a80ba"/><stop offset="1" stop-color="#16a085"/></linearGradient><clipPath id="g"><path d="M17.05,65.94c1.32,.46,2.56,1.22,3.62,2.28,3.45,3.45,3.74,8.85,.88,12.63-2.88-4.53-4.38-9.71-4.5-14.91m21.71,17.24l2.93-2.93c1.25-1.25,1.68-2.96,1.18-4.65-.78-2.63-.42-5.52,1.08-7.9l-2.95-2.95c-1.25-1.25-2.96-1.68-4.65-1.18-3.28,.98-6.98,.17-9.58-2.42-3.25-3.25-3.69-8.24-1.34-11.96l-2.05-2.05c.65-.82,1.36-1.6,2.11-2.36h0c.26-.26,.52-.51,.79-.76l2.16,2.16c2.38-1.51,5.28-1.87,7.9-1.08,1.69,.5,3.4,.07,4.65-1.18l3.8-3.8c1.04-1.04,1.51-2.4,1.35-3.8,5.14,.03,10.28,1.4,14.82,4.13-2.48,1.85-5.65,2.35-8.51,1.5-1.69-.5-3.4-.07-4.65,1.18l-3.8,3.8c-1.25,1.25-1.68,2.96-1.18,4.65,.54,1.8,.54,3.72,0,5.52-.5,1.69-.07,3.4,1.18,4.65l2.95,2.95c3.73-2.36,8.72-1.91,11.96,1.34,3.76,3.77,3.76,9.87,0,13.63-2.59,2.59-6.29,3.4-9.58,2.42-1.69-.5-3.4-.07-4.65,1.18l-2.93,2.93c-1.25,1.25-1.68,2.96-1.18,4.65,.29,.96,.42,1.97,.4,2.96-5.65-.98-11.05-3.62-15.4-7.94,2.48-1.86,5.66-2.36,8.52-1.51,1.69,.5,3.4,.07,4.65-1.18Z" style="clip-rule:evenodd; fill:none;"/></clipPath><linearGradient id="i" x1="26.07" y1="98.23" x2="1.24" y2="87.84" gradientTransform="translate(16.05 -32.02)" gradientUnits="userSpaceOnUse"><stop offset="0" stop-color="#fff"/><stop offset="1" stop-color="#000"/></linearGradient><mask id="h" x="17.05" y="36.32" width="45.64" height="57.48" maskUnits="userSpaceOnUse"><rect x="17.05" y="36.32" width="44.69" height="57.48" style="fill:url(#i);"/></mask><linearGradient id="j" x1="23.74" y1="66.96" x2="57.43" y2="62.99" gradientTransform="matrix(1, 0, 0, 1, 0, 0)" gradientUnits="userSpaceOnUse"><stop offset="0" stop-color="#2a80ba"/><stop offset="1" stop-color="#16a085"/></linearGradient><clipPath id="k"><path d="M22.13,85.31h0c-12.07-12.07-12.07-31.83,0-43.9h0c12.07-12.07,31.83-12.07,43.9,0h0c6.8,6.8,9.77,16.04,8.91,24.98,.29-7.8-2.52-15.69-8.43-21.61h0c-11.28-11.28-29.73-11.28-41,0h0c-11.28,11.28-11.28,29.73,0,41h0c5.92,5.92,13.81,8.73,21.61,8.43-8.93,.86-18.17-2.11-24.98-8.91" style="clip-rule:evenodd; fill:none;"/></clipPath><linearGradient id="l" x1="25.63" y1="87.68" x2="59.47" y2="37.86" gradientTransform="matrix(1, 0, 0, 1, 0, 0)" gradientUnits="userSpaceOnUse"><stop offset="0" stop-color="#2a80ba"/><stop offset="1" stop-color="#16a085"/></linearGradient></defs><g style="clip-path:url(#b);"><path d="M203.15,50.19c3.96,0,7.36,2.98,7.36,7.41s-3.4,7.46-7.36,7.46-7.2-3.04-7.2-7.46,3.19-7.41,7.2-7.41m7.77-15.85v14.05c-1.49-2.62-5.66-4.07-8.34-4.07-7.41,0-12.92,4.53-12.92,13.28s5.61,13.28,13.07,13.28c3.09,0,6.23-1.03,8.18-4.06l.41,3.5h5.87V34.34h-6.28Zm32.91,14.1c-1.44-2.52-4.68-4.12-8.08-4.12-7.41-.05-13.23,4.53-13.23,13.28s5.56,13.54,13.07,13.48c2.83-.05,6.79-1.49,8.23-4.48l.31,3.71h5.92v-25.37h-6.02l-.21,3.5Zm-7.51,1.49c9.88,0,9.88,15.39,0,15.39-4.17,0-7.51-2.88-7.51-7.72s3.34-7.67,7.51-7.67Zm21.79-11.48v6.54h-4.73v5.4h4.73v10.96c0,6.33,3.6,9.47,9.11,9.26,1.9-.05,3.4-.36,5.2-1.08l-1.75-5.35c-.93,.46-2.06,.77-3.04,.77-1.96,0-3.29-1.18-3.29-3.6v-10.96h7.05v-5.4h-7v-7.21l-6.28,.67Zm39.14,9.98c-1.44-2.52-4.68-4.12-8.08-4.12-7.41-.05-13.23,4.53-13.23,13.28s5.56,13.54,13.07,13.48c2.83-.05,6.79-1.49,8.23-4.48l.31,3.71h5.92v-25.37h-6.02l-.21,3.5Zm-7.51,1.49c9.88,0,9.88,15.39,0,15.39-4.17,0-7.51-2.88-7.51-7.72s3.34-7.67,7.51-7.67Z" style="fill:#2c3e50;"/><g style="clip-path:url(#c);"><rect x="99.13" y="34.34" width="85.84" height="36.85" style="fill:url(#d);"/></g><path d="M299,85.17h-4.53l2.26-5.2,2.26,5.2Zm1.95,4.44h2.51l-5.47-12.2h-2.51l-5.47,12.2h2.49l1.04-2.3h6.37l1.03,2.3Zm-21.16,0h2.3v-10.12h3.87v-2.09h-10.03v2.09h3.87v10.12Zm-10.57-4.44h-4.53l2.26-5.2,2.26,5.2Zm1.95,4.44h2.51l-5.47-12.2h-2.51l-5.47,12.2h2.49l1.04-2.3h6.37l1.03,2.3Zm-23.72-10.03h2.51c2.65,0,3.76,1.9,3.81,3.8,.05,1.99-1.04,4.01-3.81,4.01h-2.51v-7.82Zm2.51-2.18h-4.79v12.2h4.79c4.27,0,6.15-3.12,6.09-6.21-.05-3.02-1.92-6-6.09-6Zm-18.94,1.53c-1.25-1.24-2.89-1.86-4.53-1.86-4.3,0-6.44,3.17-6.44,6.6,0,3.2,1.86,6.21,6.44,6.21,2.14,0,3.66-.82,4.86-2.19v-5.14h-5.22v2.05h3.12v2.16c-.96,.77-1.79,.97-2.75,.97-3.03,0-4.2-2.07-4.2-4.07,0-2.51,1.58-4.49,4.2-4.49,1.06,0,2.28,.44,3.1,1.22l1.43-1.46Zm-16.56,10.67v-12.2h-2.28v12.2h2.28Zm-12.4-12.2h-5.78v12.2h5.78c2.52,0,4.56-.87,4.56-3.59,0-.77-.52-2.28-1.95-2.71,1.13-.51,1.58-1.41,1.58-2.36,0-2.46-1.79-3.54-4.2-3.54Zm-3.52,2.09h3.52c1.46,0,1.92,.95,1.92,1.51,0,.7-.47,1.31-1.92,1.31h-3.52v-2.82Zm0,4.84h3.52c.94,0,2.28,.57,2.28,1.67s-1.34,1.46-2.28,1.46h-3.52v-3.13Zm-22.23-5.07c2.87,0,4.02,2.3,3.99,4.35-.04,2-1.12,4.16-3.99,4.16s-3.95-2.14-4-4.14c-.05-2.05,1.13-4.37,4-4.37Zm0-2.09c-4.21,0-6.27,3.22-6.27,6.42s1.98,6.28,6.27,6.28,6.22-3.15,6.25-6.3c.04-3.19-2.05-6.41-6.25-6.41Zm-11.81,2.25c-.92-1.88-2.89-2.42-4.79-2.42-2.25,.02-4.72,1.04-4.72,3.55,0,2.73,2.3,3.4,4.79,3.69,1.62,.17,2.82,.64,2.82,1.79,0,1.32-1.36,1.83-2.8,1.83s-2.89-.59-3.43-1.93l-1.92,.99c.91,2.23,2.82,2.99,5.31,2.99,2.72,0,5.12-1.17,5.12-3.88,0-2.91-2.37-3.57-4.91-3.88-1.46-.17-2.72-.47-2.72-1.53,0-.91,.82-1.62,2.52-1.62,1.32,0,2.47,.66,2.89,1.36l1.83-.94Zm-29,10.18h2.3v-10.12h3.87v-2.09h-10.03v2.09h3.87v10.12Zm-14.3-10.34c2.87,0,4.02,2.3,3.99,4.35-.04,2-1.11,4.16-3.99,4.16s-3.95-2.14-4-4.14c-.05-2.05,1.13-4.37,4-4.37Zm0-2.09c-4.21,0-6.27,3.22-6.27,6.42s1.98,6.28,6.27,6.28,6.22-3.15,6.25-6.3c.04-3.19-2.05-6.41-6.25-6.41Zm-14.23,7.79l-5.97-7.57h-1.86v12.2h2.3v-8.23l6.41,8.23h1.43v-12.2h-2.3v7.57Z" style="fill:#2c3e50;"/><g style="clip-path:url(#e);"><rect x=".28" y=".28" width="63.76" height="48.19" style="fill:url(#f);"/></g><g style="clip-path:url(#g);"><g style="mask:url(#h);"><rect x="17.05" y="36.32" width="45.64" height="57.48" style="fill:url(#j);"/></g></g><g style="clip-path:url(#k);"><rect x="10.06" y="29.34" width="65.74" height="65.74" style="fill:url(#l);"/></g><path d="M97.65,125.83h1.44c.25-.09,1.29-.23,1.67-.33,1.39-.36,2.82-1.19,3.78-2.1,3.07-2.92,3.35-8.19,.75-11.53-.82-1.04-2.92-3-3.87-3.95l-5.89-5.96c-.34-.34-.65-.69-1.01-1.01-1.06-.94-1.1-1.1-1.97-1.98-1.01-1.01-2.1-1.77-3.59-2.3-2.37-.84-4.5-.49-6.62,.32l-6.69-6.69c.14-.22,.34-.42,.51-.64,2.85-3.65,4.3-6.03,6.06-10.67,9.61-25.3-10.36-51.87-38.74-49.13,9.21-.35,18.53,2.97,25.52,9.96h0c13.32,13.32,13.32,35.12,0,48.44h0c-13.32,13.32-35.12,13.32-48.44,0-6.99-6.99-10.31-16.32-9.96-25.52-1.02,10.55,2.49,21.47,10.52,29.5h0c2.52,2.51,5.31,4.58,8.29,6.21,4.59,2.63,9.73,4.23,15.46,4.7,7.74,.64,15.21-1.34,21.52-5.06,1.19-.7,2.91-1.88,3.98-2.76l1.2-.95,3.33,3.31c.57,.57,1.09,1.09,1.66,1.67,2.1,2.1,1.68,1.26,1.19,2.75-.89,2.7-.4,5.69,1.25,7.89,.91,1.21,4.36,4.52,5.65,5.81,1.56,1.56,7.22,7.42,8.76,8.51,1.96,1.38,3.65,1.27,4.22,1.48" style="fill:#2c3e50; fill-rule:evenodd;"/></g></svg>